<svg xmlns="http://www.w3.org/2000/svg" xmlns:svg="http://www.w3.org/2000/svg" xmlns:xlink="http://www.w3.org/1999/xlink" id="svg2" x="0" y="0" enable-background="new -219 327.6 171.5 139.4" version="1.1" viewBox="-219 327.6 171.5 139.4" xml:space="preserve"><path fill="#F9F9F9" d="M-140.5,419.7c-3.7,19.2-8.1,37.6-21.4,47.2c-4.1-29,6-50.7,10.7-73.9c-8-13.4,1-40.5,17.8-33.8	c20.7,8.2-17.9,50,8,55.2c27.1,5.4,38.2-47,21.4-64.1c-24.3-24.6-70.7-0.6-65,34.7c1.4,8.6,10.3,11.2,3.6,23.1	c-15.5-3.4-20.2-15.7-19.6-32c1-26.7,24-45.5,47.2-48c29.3-3.3,56.7,10.7,60.5,38.3c4.3,31.1-13.2,64.7-44.5,62.3	C-130.3,428-133.8,423.8-140.5,419.7z"/></svg>