<svg xmlns="http://www.w3.org/2000/svg" xmlns:xlink="http://www.w3.org/1999/xlink" id="Layer_1" x="0" y="0" enable-background="new -356.9 297.8 21.9 27.6" version="1.1" viewBox="-356.9 297.8 21.9 27.6" xml:space="preserve"><polygon id="create-icon" fill="#FFF" points="-274 394.5 -282 394.5 -282 386.4 -286.5 386.4 -286.5 394.5 -294.5 394.5 -294.5 398.9 -286.5 398.9 -286.5 406.9 -282 406.9 -282 398.9 -274 398.9" display="none"/><polyline fill="#FFF" points="-349.6 304.5 -345.6 300.5 -348.3 297.8 -356 305.4 -348.4 313 -345.7 310.3 -349.6 306.4"/><path fill="#FFF" d="M-346,325.4c-6,0-11-4.9-11-11h3.8c0,3.9,3.2,7.2,7.2,7.2s7.2-3.2,7.2-7.2s-3.2-7.2-7.2-7.2h-4.2v-3.8h4.2	c6,0,11,4.9,11,11S-339.9,325.4-346,325.4z"/></svg>