<svg xmlns="http://www.w3.org/2000/svg" xmlns:xlink="http://www.w3.org/1999/xlink" id="Layer_1" width="21" height="20.578" x="0" y="0" enable-background="new 0 0 21 20.578" version="1.1" viewBox="0 0 21 20.578" xml:space="preserve"><polygon id="create-icon" fill="#FFF" points="21 8.035 12.965 8.035 12.965 0 8.515 0 8.515 8.035 .48 8.035 .48 12.484 8.515 12.484 8.515 20.52 12.965 20.52 12.965 12.484 21 12.484" display="none"/><g id="share-icon"><polygon fill="#FFF" points="20.578 20.578 0 20.578 0 .001 6.574 .001 6.574 3.844 3.843 3.844 3.843 16.735 16.735 16.735 16.735 14.051 20.578 14.051"/><polygon fill="#FFF" points="9.814 0 9.814 3.844 14.018 3.844 8.364 9.497 9.789 10.921 11.082 12.214 16.735 6.561 16.735 10.811 20.578 10.811 20.578 0"/></g></svg>